Coordinates
version=1
nRows=14
nColumns=33
inDegrees=yes

Units are S.I. units (second, meters, Newtons, ...)
Angles are in degrees.

endheader
time	ground_thorax_rot_x	ground_thorax_rot_y	ground_thorax_rot_z	ground_thorax_tx	ground_thorax_ty	ground_thorax_tz	clav_prot_r	clav_elev_r	scapula_abduction_r	scapula_elevation_r	scapula_upward_rot_r	scapula_winging_r	shoulder_elv_r	plane_of_elev_r	axial_rot_r	elbow_flexion_r	pro_sup_r	wrist_flex_r	wrist_dev_r	clav_prot_l	clav_elev_l	scapula_abduction_l	scapula_elevation_l	scapula_upward_rot_l	scapula_winging_l	shoulder_elv_l	plane_of_elev_l	axial_rot_l	elbow_flexion_l	pro_sup_l	wrist_flex_l	wrist_dev_l
      8.53000000	    -33.96351428	    -24.42047833	     35.45497049	   -153.25571842	    809.28344296	     -7.30853419	      6.07693319	    -45.00000000	     38.60276582	    -45.00000000	    -34.96793409	  -2259.00725047	  -2631.10477166	    147.41586237	   -117.90380593	   1098.38690636	   -297.94359733	     18.30683962	      5.82506114	     15.97843913	     38.16800150	    -36.39442469	    -45.00000000	    -45.00000000	   2241.14405600	  -2614.40960936	    134.05184558	   -179.99999979	   -348.82804128	    392.25939701	      7.63833787	    -21.45863814
      8.54000000	    -34.12298480	    -24.15957965	     35.06744881	   -155.83928554	    810.22815469	     -7.28514351	      6.10292620	    -45.00000000	     38.63630776	    -45.00000000	    -34.88590433	  -2259.13878592	  -2630.89375120	    147.31810680	   -118.09707623	   1098.65014597	   -296.40117413	     18.24692953	      5.68000088	     15.98779395	     38.11205720	    -36.49414300	    -45.00000000	    -45.00000000	   2241.33791433	  -2614.29171501	    134.00790891	   -179.99999979	   -348.79811052	    391.80612774	      7.54686522	    -21.43462956
      8.55000000	    -34.30695149	    -23.86581560	     34.65825596	   -158.41167486	    811.17774691	     -7.26611307	      6.09430787	    -45.00000000	     38.67812621	    -45.00000000	    -34.73314021	  -2259.26711712	  -2630.68625048	    147.26291235	   -118.30596280	   1098.91043955	   -294.77614020	     18.19104640	      5.54220451	     15.98684724	     38.09043975	    -36.62756572	    -45.00000000	    -45.00000000	   2241.53795459	  -2614.17162631	    133.97402343	   -179.99999979	   -348.73975740	    391.33863465	      7.44756679	    -21.41790046
      8.56000000	    -34.80324985	    -23.13231070	     33.67729483	   -160.97342010	    812.13335956	     -7.25133473	      5.94091033	    -45.00000000	     38.65535778	    -45.00000000	    -34.03941800	  -2259.46965447	  -2630.63807629	    147.13442209	   -118.80543879	   1099.06712972	   -293.50380921	     18.01988685	      5.34712054	     15.62711818	     38.33214256	    -37.14789149	    -45.00000000	    -45.00000000	   2241.87633650	  -2614.05338020	    133.78877709	   -179.99999979	   -348.51259856	    391.03498256	      7.48841193	    -21.58244601
      8.57000000	    -34.94201625	    -22.88217404	     33.32358931	   -163.52596773	    813.09526376	     -7.24007899	      5.92017804	    -45.00000000	     38.67299728	    -45.00000000	    -33.95455601	  -2259.55954124	  -2630.39920452	    147.09702649	   -118.86262944	   1099.30422128	   -292.16416323	     17.98164338	      5.24802877	     15.77413016	     38.32503681	    -37.18987938	    -45.00000000	    -45.00000000	   2241.93932787	  -2613.89993448	    133.84799382	   -179.99999979	   -348.47271963	    390.66716527	      7.33793416	    -21.53266788
      8.58000000	    -35.12307195	    -22.59672381	     32.89373909	   -166.07390339	    814.06585749	     -7.23177748	      5.91742800	    -45.00000000	     38.70120477	    -45.00000000	    -33.79566708	  -2259.67876830	  -2630.19988044	    147.03683806	   -119.03543203	   1099.56708515	   -290.70607145	     17.90266829	      5.10608258	     15.71868453	     38.35373601	    -37.29796425	    -45.00000000	    -45.00000000	   2242.13187077	  -2613.78910570	    133.83362954	   -179.99999979	   -348.41491006	    390.30532350	      7.26606855	    -21.55126950
      8.59000000	    -35.29455052	    -22.31666873	     32.48666366	   -168.61545260	    815.04399154	     -7.22561213	      5.91051339	    -45.00000000	     38.72290939	    -45.00000000	    -33.69882878	  -2259.78651245	  -2629.98546380	    146.97658022	   -119.16383223	   1099.86055292	   -289.11528134	     17.82143800	      4.97002606	     15.73036705	     38.36267110	    -37.39475936	    -45.00000000	    -45.00000000	   2242.29598748	  -2613.67455517	    133.83851229	   -179.99999979	   -348.37439716	    389.94310781	      7.16570725	    -21.54433244
      8.60000000	    -35.19282914	    -22.46930490	     32.66395178	   -171.15461694	    816.02991831	     -7.22120757	      6.18493453	    -45.00000000	     38.81618166	    -45.00000000	    -34.39214389	  -2259.89942615	  -2629.74444613	    146.86896702	   -118.93525221	   1100.24787007	   -286.37332201	     17.75404386	      4.86677077	     15.98150398	     37.88976778	    -37.12219998	    -45.00000000	    -45.00000000	   2242.44908019	  -2613.58810253	    133.81545015	   -179.99999979	   -348.62311883	    389.34134798	      6.96296485	    -21.35721798
      8.61000000	    -35.50131166	    -21.96148056	     31.91879629	   -173.68428666	    817.01934327	     -7.21785982	      6.00058623	    -45.00000000	     38.87300152	    -45.00000000	    -33.89962854	  -2259.97155020	  -2629.50035464	    146.87779908	   -119.20138690	   1100.78104854	   -284.00759006	     17.68459466	      4.67223876	     15.87065408	     38.11074805	    -37.37673124	    -45.00000000	    -45.00000000	   2242.66593036	  -2613.49862443	    133.72805474	   -179.99999979	   -348.57006056	    389.01680378	      6.91789206	    -21.40078893
      8.62000000	    -35.61546301	    -21.80015398	     31.66388842	   -176.20557951	    818.00910559	     -7.21547156	      6.07015338	    -45.00000000	     38.83826226	    -45.00000000	    -33.97580447	  -2260.09409870	  -2629.37152357	    146.78258838	   -119.06805712	   1101.16162012	   -281.15434807	     17.51064388	      4.53508604	     15.95321469	     37.95334869	    -37.35600816	    -45.00000000	    -45.00000000	   2242.84916930	  -2613.40463438	    133.70718331	   -179.99999979	   -348.61098407	    388.63810485	      6.77841678	    -21.34716899
      8.63000000	    -35.93224445	    -21.32043715	     31.13751788	   -178.71620026	    818.99506112	     -7.21393471	      6.31473911	    -45.00000000	     38.34355943	    -45.00000000	    -35.28729466	  -2259.90965882	  -2629.63536033	    147.13032509	   -116.13230261	   1105.93205087	   -239.05264768	     16.14563665	      3.65082360	     15.95728373	     37.81720547	    -37.59742398	    -45.00000000	    -45.00000000	   2242.59049265	  -2613.30925953	    134.20148456	   -179.99999979	   -348.72657646	    384.05420954	      7.11990311	    -21.06340833
      8.64000000	    -36.06715647	    -21.03855082	     30.70048267	   -181.21429694	    819.97279986	     -7.21305338	      5.98497166	    -45.00000000	     38.79233533	    -45.00000000	    -33.81962770	  -2260.24381283	  -2629.57613265	    147.52020822	   -114.39965534	   1106.10925450	   -238.50529352	     15.48045539	      3.53010280	     15.81484425	     38.11150789	    -37.59439697	    -45.00000000	    -45.00000000	   2243.08498992	  -2613.22829786	    133.72080460	   -179.99999979	   -348.81844613	    384.70678603	      7.28476532	    -21.26101699
      8.65000000	    -36.26034836	    -20.71442456	     30.21934032	   -183.69602301	    820.93780330	     -7.21302195	      5.94728300	    -45.00000000	     38.87954287	    -45.00000000	    -33.51150647	  -2260.38353545	  -2629.46309806	    147.52228552	   -114.08091542	   1106.25591301	   -237.61371246	     15.32051921	      3.54585732	     15.80270106	     38.13574299	    -37.65478601	    -45.00000000	    -45.00000000	   2243.23466660	  -2613.11584331	    133.72685945	   -179.99999979	   -348.67207864	    385.10190188	      7.06690768	    -21.30650983
      8.66000000	    -36.52326892	    -20.29113104	     29.67495579	   -186.15847545	    821.88654617	     -7.21412902	      5.83300149	    -45.00000000	     38.84661323	    -45.00000000	    -33.10150467	  -2260.46265744	  -2629.36731869	    147.59576504	   -114.15607199	   1106.33981253	   -236.72570311	     15.10430222	      3.59798490	     15.62263496	     38.41664678	    -37.83126060	    -45.00000000	    -45.00000000	   2243.30595072	  -2612.99136588	    133.89803774	   -179.99999979	   -348.39810985	    385.39446772	      7.04169558	    -21.45880024
